<svg xmlns:xlink="http://www.w3.org/1999/xlink"  xmlns="http://www.w3.org/2000/svg" width="158" height="42" viewBox="0 0 158 42" fill="none">
<path d="M155.988 20.7937C155.988 20.7945 155.988 20.7945 155.988 20.7937C155.987 20.7945 155.988 20.7945 155.988 20.7937C155.986 20.7945 155.985 20.7937 155.985 20.793C155.985 20.7922 155.986 20.7914 155.987 20.7914H155.988C155.987 20.7914 155.987 20.7922 155.987 20.7922C155.987 20.7922 155.986 20.7937 155.988 20.7937C155.987 20.7937 155.987 20.7937 155.988 20.7937ZM155.989 20.793L155.988 20.7922C155.988 20.7922 155.988 20.7922 155.989 20.793H155.988C155.988 20.793 155.988 20.793 155.987 20.793C155.987 20.793 155.986 20.793 155.986 20.7937C155.986 20.7937 155.986 20.7945 155.987 20.7945C155.987 20.7945 155.987 20.7945 155.988 20.7945L155.989 20.793ZM156.017 20.8425V20.8433C156.017 20.8433 156.017 20.8433 156.017 20.8425C156.017 20.8418 156.017 20.8418 156.017 20.8418H156.016V20.8433H156.017V20.8441C156.017 20.8441 156.016 20.8441 156.015 20.8441H156.014V20.8433C156.014 20.8433 156.014 20.8425 156.013 20.8418C156.013 20.8433 156.012 20.8441 156.011 20.8441C156.011 20.8441 156.011 20.8433 156.011 20.8433C156.011 20.8433 156.011 20.8441 156.01 20.8441C156.009 20.8441 156.008 20.8433 156.008 20.8418C156.008 20.8425 156.008 20.8441 156.007 20.8441C156.007 20.8441 156.007 20.8433 156.006 20.8433C156.005 20.8433 156.005 20.8441 156.005 20.8441C156.004 20.8441 156.004 20.8441 156.003 20.8441V20.8395H156.002V20.8441H156.001H156H155.999L155.998 20.841C155.998 20.8402 155.997 20.8395 155.997 20.8395C155.997 20.8402 155.997 20.841 155.997 20.8418V20.8441H155.996V20.8387H155.997L155.998 20.8418C155.999 20.8425 155.999 20.8425 155.999 20.8433C155.999 20.8425 155.999 20.8418 155.999 20.841V20.8387H156H156.002H156.004C156.005 20.8387 156.005 20.8387 156.005 20.8395C156.005 20.8395 156.005 20.8387 156.006 20.8387C156.007 20.8387 156.007 20.8395 156.008 20.8402V20.8387H156.008V20.841C156.008 20.8425 156.009 20.8425 156.01 20.8425C156.01 20.8425 156.01 20.8418 156.011 20.8418C156.011 20.8418 156.01 20.8418 156.01 20.8402V20.8372H156.011V20.8402C156.011 20.841 156.011 20.841 156.011 20.841C156.011 20.841 156.012 20.841 156.012 20.8402V20.8372H156.013V20.8402C156.013 20.841 156.012 20.841 156.012 20.841C156.012 20.841 156.012 20.8418 156.013 20.8418C156.014 20.8418 156.014 20.841 156.014 20.8402V20.838H156.015V20.8395C156.015 20.8387 156.016 20.8387 156.016 20.8387V20.838H156.017C156.017 20.838 156.017 20.838 156.018 20.838H156.019L156.02 20.8387C156.02 20.8395 156.019 20.8402 156.019 20.8402C156.017 20.8418 156.017 20.8425 156.017 20.8425L156.018 20.8387H156.019L156.021 20.8441H156.02L156.019 20.8425H156.017ZM156.017 20.8418H156.019L156.018 20.8402L156.017 20.8418ZM155.999 20.841H156.001V20.8395H155.999V20.841ZM156.001 20.8441V20.8418H155.999V20.8441H156.001ZM156.005 20.8402C156.005 20.841 156.004 20.841 156.004 20.8418C156.004 20.8425 156.005 20.8425 156.005 20.8425C156.005 20.8418 156.006 20.8418 156.006 20.841C156.006 20.841 156.005 20.841 156.005 20.8402ZM156.006 20.8441C156.007 20.8441 156.008 20.8433 156.008 20.8418V20.841C156.008 20.8402 156.007 20.8395 156.007 20.8395C156.008 20.8402 156.008 20.8402 156.008 20.841C156.007 20.8425 156.007 20.8433 156.006 20.8441C156.006 20.8433 156.005 20.8433 156.006 20.8441C156.005 20.8441 156.005 20.8433 156.006 20.8441ZM156.005 20.8433C156.004 20.8425 156.003 20.8425 156.003 20.8418C156.003 20.841 156.004 20.841 156.005 20.8402C156.005 20.8402 156.005 20.8395 156.004 20.8395C156.004 20.8395 156.004 20.8395 156.003 20.8395V20.8441H156.004C156.004 20.8441 156.004 20.8433 156.005 20.8433ZM156.014 20.8425V20.8402L156.013 20.841V20.8418C156.013 20.8425 156.014 20.8425 156.014 20.8425ZM156.015 20.841C156.016 20.841 156.017 20.8402 156.017 20.8402C156.017 20.8395 156.016 20.8395 156.015 20.8395V20.841ZM156.023 20.8441V20.8395H156.024V20.8387H156.021V20.8395H156.022L156.023 20.8441ZM156.026 20.8441V20.8387H156.025L156.026 20.8441ZM156.027 20.8418C156.027 20.8402 156.027 20.8387 156.029 20.8387C156.03 20.8387 156.031 20.8395 156.031 20.8418C156.031 20.8441 156.03 20.8448 156.029 20.8448C156.028 20.8448 156.027 20.8433 156.027 20.8418ZM156.029 20.8395C156.027 20.8395 156.027 20.8402 156.027 20.8418C156.027 20.8425 156.028 20.8441 156.029 20.8441C156.03 20.8441 156.03 20.8433 156.03 20.8418C156.03 20.8402 156.03 20.8395 156.029 20.8395ZM156.034 20.8418L156.035 20.8448H156.036V20.8395H156.035V20.8418C156.035 20.8425 156.035 20.8433 156.035 20.8441C156.035 20.8433 156.034 20.8425 156.034 20.8425L156.033 20.8395H156.032V20.8448H156.033V20.8425C156.033 20.8418 156.033 20.841 156.033 20.8402C156.033 20.8402 156.034 20.841 156.034 20.8418ZM155.992 20.8387C155.993 20.8387 155.994 20.8395 155.994 20.8418C155.994 20.8441 155.993 20.8448 155.992 20.8448C155.99 20.8448 155.989 20.8441 155.989 20.8418C155.989 20.8395 155.99 20.8387 155.992 20.8387ZM155.992 20.8395C155.991 20.8395 155.99 20.8402 155.99 20.8418C155.99 20.8425 155.991 20.8441 155.992 20.8441C155.992 20.8441 155.993 20.8433 155.993 20.8418C155.993 20.8402 155.993 20.8395 155.992 20.8395ZM62.2493 18.8472V22.7357C62.2493 28.9383 59.3115 32.3542 53.9766 32.3542C51.4498 32.3542 49.4461 31.5902 48.0203 30.0828C46.4633 28.4374 45.6742 25.9647 45.6742 22.735V18.8464C45.6742 15.6166 46.4633 13.1447 48.0203 11.4986C49.4461 9.99195 51.4498 9.2272 53.9766 9.2272C59.3108 9.22797 62.2493 12.6446 62.2493 18.8472ZM50.1719 13.5488C49.2249 14.6765 48.7454 16.4591 48.7454 18.8472V22.7357C48.7454 27.3395 50.4563 29.5773 53.9758 29.5773C57.4755 29.5773 59.1766 27.3395 59.1766 22.7357V18.8472C59.1766 14.2434 57.4755 12.0056 53.9758 12.0056C52.3114 12.0056 51.0312 12.5248 50.1719 13.5488ZM81.4641 9.43917H79.8698C79.4939 9.43917 79.1759 9.7716 79.1759 10.1643V27.3532L70.1408 10.1231C69.8632 9.60157 69.6383 9.43917 68.7729 9.43917H67.1184C66.5435 9.43917 66.0936 9.87682 66.0936 10.4357V31.6291C66.0936 32.1437 66.6159 32.1437 66.7875 32.1437H68.3513C68.7272 32.1437 69.0451 31.8113 69.0451 31.4186V14.2023L78.1695 31.5772C78.3517 31.9424 78.7421 32.1437 79.2682 32.1437H81.1332C81.6981 32.1437 82.1579 31.6832 82.1579 31.1167V10.1643C82.1579 9.75101 81.8598 9.43917 81.4641 9.43917ZM99.449 9.43917H84.9828C84.5673 9.43917 84.2288 9.75101 84.2288 10.1345V11.4612C84.2288 11.847 84.5246 12.0963 84.9828 12.0963H90.6952V31.3881C90.6952 31.8044 91.0063 32.1437 91.389 32.1437H93.0428C93.4774 32.1437 93.7366 31.7594 93.7366 31.3881V12.0956H99.449C99.8752 12.0956 100.173 11.8348 100.173 11.4605V10.1338C100.173 9.72509 99.8752 9.43917 99.449 9.43917ZM117.947 18.8472V22.7357C117.947 28.9383 115.009 32.3542 109.674 32.3542C107.148 32.3542 105.143 31.5902 103.718 30.0828C102.161 28.4374 101.372 25.9647 101.372 22.735V18.8464C101.372 15.6166 102.161 13.1447 103.718 11.4986C105.144 9.99195 107.148 9.2272 109.674 9.2272C115.009 9.22797 117.947 12.6446 117.947 18.8472ZM105.87 13.5488C104.923 14.6765 104.444 16.4591 104.444 18.8472V22.7357C104.444 27.3395 106.155 29.5773 109.674 29.5773C113.174 29.5773 114.875 27.3395 114.875 22.7357V18.8472C114.875 14.2434 113.174 12.0056 109.674 12.0056C108.01 12.0056 106.73 12.5248 105.87 13.5488ZM136.681 9.43917H135.057C134.658 9.43917 134.333 9.76474 134.333 10.1643V23.8504C134.333 28.0036 132.948 29.697 129.553 29.697C127.788 29.697 126.564 29.2128 125.81 28.2163C125.103 27.2815 124.773 25.8938 124.773 23.8504V10.1643C124.773 9.76398 124.449 9.43917 124.05 9.43917H122.426C122.026 9.43917 121.702 9.76474 121.702 10.1643V23.8504C121.702 26.699 122.397 28.8659 123.767 30.2909C125.084 31.6596 127.03 32.3534 129.553 32.3534C132.076 32.3534 134.023 31.6596 135.34 30.2909C136.71 28.8667 137.404 26.6998 137.404 23.8504V10.1643C137.405 9.76474 137.08 9.43917 136.681 9.43917ZM157.284 31.5986C157.284 31.9089 157.051 32.143 156.74 32.143H154.816C154.438 32.143 154.189 32.143 153.904 31.6786L148.564 22.7677H147.869C146.941 22.7677 146.249 22.7418 144.869 22.6892L144.713 22.6831V31.3881C144.713 31.7594 144.454 32.1437 144.019 32.1437H142.395C142.013 32.1437 141.702 31.8052 141.702 31.3881V10.2855C141.702 9.77465 141.95 9.53829 142.559 9.47043C143.782 9.32785 145.966 9.22797 147.869 9.22797C150.477 9.22797 152.521 9.7106 153.946 10.6629C155.602 11.77 156.442 13.5191 156.442 15.8621V16.0733C156.442 17.7233 155.982 19.1156 155.073 20.2105C154.287 21.1574 153.158 21.8627 151.802 22.2561L157.173 31.2494C157.245 31.3584 157.284 31.4781 157.284 31.5986ZM144.713 20.0541C145.995 20.0831 147.205 20.1113 147.869 20.1113C151.871 20.1113 153.43 18.9791 153.43 16.0733V15.8621C153.43 13.1226 151.819 12.0048 147.869 12.0048C147.021 12.0048 145.484 12.0048 144.713 12.0796V20.0541Z" fill="#212121"/>
<path d="M25.884 31.9921C24.4521 32.5609 22.8852 32.8628 21.2452 32.8369C14.7276 32.7339 9.43693 27.3921 9.39347 20.8739C9.34848 14.1825 14.7597 8.74387 21.4404 8.74387C23.0118 8.74387 24.5123 9.04504 25.8885 9.59173C26.847 9.97296 27.9388 9.74879 28.6685 9.01988L31.2692 6.41913C32.5105 5.17784 32.1827 3.07345 30.6097 2.29269C27.8473 0.921024 24.7342 0.149414 21.4411 0.149414C10.0416 0.149414 0.799774 9.3912 0.799774 20.7908C0.799774 32.1903 10.0416 41.4321 21.4411 41.4321C24.7342 41.4321 27.8473 40.6605 30.6097 39.2888C32.1827 38.5081 32.5105 36.4037 31.2692 35.1624L28.6685 32.5616C27.9373 31.8319 26.8439 31.6108 25.884 31.9921Z" fill="#007AFF"/>
<path d="M39.4955 10.781C38.8687 9.65329 37.3423 9.43217 36.4304 10.3441L32.9055 13.8689C32.3466 14.4278 32.1804 15.2726 32.4945 15.9977C32.7157 16.5078 32.9032 17.0354 33.0527 17.5791H27.4638C26.3339 15.4648 24.1235 14.0138 21.57 13.9658C17.8347 13.8956 14.7018 16.8913 14.6141 20.6266C14.5233 24.4725 17.6136 27.6184 21.4389 27.6184C24.048 27.6184 26.3148 26.1545 27.4638 24.0043H33.0527C32.9025 24.548 32.7157 25.0756 32.4945 25.5857C32.1796 26.3108 32.3459 27.1556 32.9055 27.7145L36.4304 31.2393C37.3423 32.1512 38.8687 31.9301 39.4955 30.8024C41.1431 27.8372 42.081 24.4244 42.081 20.7921C42.081 17.159 41.1431 13.7454 39.4955 10.781Z" fill="#1A1B1F"/>
</svg>